<svg xmlns="http://www.w3.org/2000/svg" xmlns:xlink="http://www.w3.org/1999/xlink" width="500" zoomAndPan="magnify" viewBox="0 0 375 374.999991" height="500" preserveAspectRatio="xMidYMid meet" version="1.0"><defs><g/><clipPath id="40dc65f704"><path d="M 56.488281 151.464844 L 318.167969 151.464844 L 318.167969 223.464844 L 56.488281 223.464844 Z M 56.488281 151.464844 " clip-rule="nonzero"/></clipPath><clipPath id="cc56eb0bf9"><path d="M 63.558594 158.238281 L 187.332031 158.238281 L 187.332031 216.761719 L 63.558594 216.761719 Z M 63.558594 158.238281 " clip-rule="nonzero"/></clipPath></defs><g clip-path="url(#40dc65f704)"><path stroke-linecap="butt" transform="matrix(0.75, 0, 0, 0.75, 56.489269, 151.465449)" fill="none" stroke-linejoin="miter" d="M -0.00131672 -0.000807338 L 348.904956 -0.000807338 L 348.904956 96.092949 L -0.00131672 96.092949 Z M -0.00131672 -0.000807338 " stroke="#ffffff" stroke-width="6" stroke-opacity="1" stroke-miterlimit="4"/></g><g clip-path="url(#cc56eb0bf9)"><path fill="#ffffff" d="M 63.558594 158.238281 L 187.332031 158.238281 L 187.332031 216.761719 L 63.558594 216.761719 Z M 63.558594 158.238281 " fill-opacity="1" fill-rule="nonzero"/></g><g fill="#007acc" fill-opacity="1"><g transform="translate(75.746388, 193.918245)"><g><path d="M 8.152344 0.375 C 12.519531 0.375 15.101562 -1.679688 15.101562 -5.144531 C 15.101562 -8.054688 13.222656 -9.757812 8.957031 -10.710938 C 6.699219 -11.214844 5.871094 -11.765625 5.871094 -12.667969 C 5.871094 -13.523438 6.625 -14.050781 7.800781 -14.050781 C 9.207031 -14.050781 10.011719 -13.320312 10.011719 -11.992188 L 14.777344 -11.992188 C 14.777344 -15.605469 12.015625 -17.9375 7.703125 -17.9375 C 3.5625 -17.9375 1.003906 -15.878906 1.003906 -12.570312 C 1.003906 -9.609375 2.933594 -7.777344 6.898438 -7.023438 C 9.03125 -6.597656 10.058594 -5.945312 10.058594 -4.941406 C 10.058594 -4.0625 9.308594 -3.5625 8.078125 -3.5625 C 6.625 -3.5625 5.769531 -4.339844 5.769531 -5.695312 L 0.878906 -5.695312 C 0.878906 -1.90625 3.585938 0.375 8.152344 0.375 Z M 8.152344 0.375 "/></g></g></g><g fill="#007acc" fill-opacity="1"><g transform="translate(91.771308, 193.918245)"><g><path d="M 10.410156 0.375 C 16.003906 0.375 19.96875 -3.410156 19.96875 -8.78125 C 19.96875 -14.148438 16.003906 -17.9375 10.410156 -17.9375 C 4.816406 -17.9375 0.851562 -14.148438 0.851562 -8.78125 C 0.851562 -3.410156 4.816406 0.375 10.410156 0.375 Z M 5.996094 -8.78125 C 5.996094 -11.414062 7.828125 -13.246094 10.410156 -13.246094 C 13.019531 -13.246094 14.828125 -11.414062 14.828125 -8.78125 C 14.828125 -6.144531 13.019531 -4.316406 10.410156 -4.316406 C 7.828125 -4.316406 5.996094 -6.144531 5.996094 -8.78125 Z M 5.996094 -8.78125 "/></g></g></g><g fill="#007acc" fill-opacity="1"><g transform="translate(112.611227, 193.918245)"><g><path d="M 10.058594 0.375 C 14.902344 0.375 18.566406 -2.558594 19.316406 -7.023438 L 14.175781 -7.023438 C 13.546875 -5.367188 12.066406 -4.316406 10.160156 -4.316406 C 7.703125 -4.316406 5.996094 -6.144531 5.996094 -8.78125 C 5.996094 -11.441406 7.726562 -13.246094 10.210938 -13.246094 C 12.042969 -13.246094 13.574219 -12.21875 14.097656 -10.636719 L 19.21875 -10.636719 C 18.3125 -15.078125 14.703125 -17.9375 10.011719 -17.9375 C 4.589844 -17.9375 0.851562 -14.199219 0.851562 -8.78125 C 0.851562 -3.363281 4.589844 0.375 10.058594 0.375 Z M 10.058594 0.375 "/></g></g></g><g fill="#007acc" fill-opacity="1"><g transform="translate(132.723873, 193.918245)"><g><path d="M 1.855469 0 L 6.925781 0 L 6.925781 -17.5625 L 1.855469 -17.5625 Z M 1.855469 0 "/></g></g></g><g fill="#007acc" fill-opacity="1"><g transform="translate(141.501216, 193.918245)"><g><path d="M 0.125 0 L 5.496094 0 L 6.449219 -2.484375 L 12.445312 -2.484375 L 13.398438 0 L 18.789062 0 L 11.964844 -17.5625 L 6.949219 -17.5625 Z M 7.5 -6.195312 L 9.457031 -11.640625 L 11.414062 -6.195312 Z M 7.5 -6.195312 "/></g></g></g><g fill="#007acc" fill-opacity="1"><g transform="translate(160.410116, 193.918245)"><g><path d="M 1.855469 0 L 14.097656 0 L 14.097656 -4.691406 L 6.925781 -4.691406 L 6.925781 -17.5625 L 1.855469 -17.5625 Z M 1.855469 0 "/></g></g></g><g fill="#ffffff" fill-opacity="1"><g transform="translate(206.324317, 194.568254)"><g><path d="M 2.660156 0 L 14.035156 0 L 14.035156 -2.140625 L 4.957031 -2.140625 L 4.957031 -8.242188 L 13.09375 -8.242188 L 13.09375 -10.355469 L 4.957031 -10.355469 L 4.957031 -16.121094 L 13.746094 -16.121094 L 13.746094 -18.257812 L 2.660156 -18.257812 Z M 2.660156 0 "/></g></g></g><g fill="#ffffff" fill-opacity="1"><g transform="translate(224.029909, 194.568254)"><g><path d="M 7.722656 0 L 9.859375 0 L 17.113281 -18.257812 L 14.6875 -18.257812 L 11.632812 -10.5625 L 8.789062 -3.3125 L 5.921875 -10.5625 L 2.894531 -18.257812 L 0.445312 -18.257812 Z M 7.722656 0 "/></g></g></g><g fill="#ffffff" fill-opacity="1"><g transform="translate(243.560697, 194.568254)"><g><path d="M 2.660156 0 L 14.035156 0 L 14.035156 -2.140625 L 4.957031 -2.140625 L 4.957031 -8.242188 L 13.09375 -8.242188 L 13.09375 -10.355469 L 4.957031 -10.355469 L 4.957031 -16.121094 L 13.746094 -16.121094 L 13.746094 -18.257812 L 2.660156 -18.257812 Z M 2.660156 0 "/></g></g></g><g fill="#ffffff" fill-opacity="1"><g transform="translate(261.266287, 194.568254)"><g><path d="M 2.660156 0 L 4.929688 0 L 4.929688 -14.292969 L 15.023438 0 L 17.164062 0 L 17.164062 -18.257812 L 14.921875 -18.257812 L 14.921875 -3.964844 L 4.824219 -18.257812 L 2.660156 -18.257812 Z M 2.660156 0 "/></g></g></g><g fill="#ffffff" fill-opacity="1"><g transform="translate(283.065547, 194.568254)"><g><path d="M 7.070312 0 L 9.363281 0 L 9.363281 -16.066406 L 15.519531 -16.066406 L 15.519531 -18.257812 L 0.886719 -18.257812 L 0.886719 -16.066406 L 7.070312 -16.066406 Z M 7.070312 0 "/></g></g></g></svg>