<?xml version="1.0" standalone="no"?>
<!DOCTYPE svg PUBLIC "-//W3C//DTD SVG 20010904//EN"
 "http://www.w3.org/TR/2001/REC-SVG-20010904/DTD/svg10.dtd">
<svg version="1.0" xmlns="http://www.w3.org/2000/svg"
 width="267.000000pt" height="232.000000pt" viewBox="0 0 267.000000 232.000000"
 preserveAspectRatio="xMidYMid meet">

<g transform="translate(0.000000,232.000000) scale(0.100000,-0.100000)"
fill="#000000" stroke="none">
<path d="M1295 2176 c-79 -26 -150 -69 -211 -128 l-62 -60 -72 61 c-84 70
-147 95 -240 95 -116 1 -226 -67 -277 -172 -25 -51 -28 -67 -28 -162 0 -96 3
-110 29 -164 54 -110 218 -258 353 -318 26 -12 77 -29 112 -38 65 -16 72 -22
87 -74 10 -33 44 -59 51 -38 3 7 13 17 23 22 15 8 26 4 55 -22 21 -17 41 -42
46 -55 6 -16 17 -23 34 -23 26 0 26 0 19 -62 -8 -77 -9 -78 -44 -78 -44 0 -58
-9 -70 -46 -34 -103 71 -161 115 -63 21 46 19 48 72 -69 39 -89 38 -101 -14
-102 -47 0 -78 -64 -53 -111 14 -26 73 -25 115 1 l33 21 7 -31 c9 -40 -4 -168
-17 -176 -5 -4 -23 8 -38 25 -23 25 -37 31 -68 31 -66 0 -95 -56 -50 -97 13
-11 39 -29 58 -38 l35 -18 -25 -16 c-61 -40 -120 -93 -120 -107 0 -19 4 -16
103 60 78 60 79 60 105 43 77 -48 89 -51 116 -33 55 35 38 127 -26 144 -39 10
-46 28 -47 137 -1 102 3 109 63 100 58 -9 76 4 76 56 0 78 -72 105 -129 48
-17 -17 -36 -27 -42 -23 -13 8 -109 203 -109 222 0 9 8 7 28 -7 27 -19 57 -26
94 -23 24 3 51 57 42 85 -8 28 -54 77 -71 77 -21 0 -15 17 14 45 35 32 73 32
112 -1 l31 -25 34 26 35 27 65 -26 c80 -32 154 -34 239 -5 140 46 256 137 327
255 l35 58 0 166 0 165 -33 56 c-39 69 -99 130 -150 155 -41 20 -140 24 -228
10 l-51 -8 -37 60 c-43 72 -102 127 -165 155 -57 26 -224 33 -286 13z m242
-31 c60 -18 141 -86 177 -149 13 -22 29 -65 35 -94 55 -265 -103 -530 -375
-628 -80 -30 -136 -31 -180 -3 -56 34 -153 148 -191 225 -30 62 -36 86 -40
161 -11 181 55 317 202 419 111 76 257 103 372 69z m-736 -46 c43 -9 63 -22
112 -69 68 -67 68 -66 27 -220 -38 -144 -13 -272 85 -422 l54 -83 -39 -3 c-55
-4 -203 33 -274 69 -182 93 -336 290 -336 430 0 139 83 264 198 299 40 12 114
12 173 -1z m1237 -187 c258 -125 248 -543 -18 -720 -161 -108 -335 -108 -442
-1 -55 55 -71 96 -42 112 10 5 49 40 85 76 50 51 78 90 115 165 l48 98 7 131
c7 145 10 151 78 163 20 3 41 7 46 9 19 7 70 -7 123 -33z m-902 -643 c10 -16
-17 -30 -46 -25 -17 3 -33 -3 -52 -22 l-28 -26 0 25 c0 33 10 46 50 63 35 14
61 9 76 -15z m354 -17 c0 -4 -29 -37 -65 -72 -68 -68 -82 -70 -86 -12 -1 12
-2 27 -3 33 -1 6 24 21 54 34 55 24 100 32 100 17z m-285 -15 c17 -13 17 -15
-6 -30 -26 -19 -64 -22 -74 -8 -5 9 40 51 54 51 4 0 15 -6 26 -13z m115 -88
c0 -9 -6 -19 -14 -22 -15 -6 -46 22 -46 41 0 20 -15 13 -38 -18 -26 -34 -42
-39 -42 -12 0 19 30 51 65 70 16 9 25 6 48 -16 15 -14 27 -33 27 -43z m215 30
c24 -30 25 -33 9 -50 -25 -27 -54 -25 -54 5 0 13 -10 31 -22 39 -20 14 -21 18
-8 26 26 18 47 12 75 -20z m-240 -99 c3 -5 -5 -29 -17 -52 l-23 -43 -3 39 c-2
21 -1 44 2 52 6 16 32 19 41 4z m75 -70 c34 -18 44 -48 25 -76 -18 -27 -50
-31 -79 -9 -19 14 -18 15 15 22 l34 7 -43 10 c-24 6 -44 16 -45 21 -2 8 44 30
71 34 2 1 12 -4 22 -9z m-204 -95 c-21 -52 -21 -51 -3 -36 22 18 31 9 23 -22
-7 -29 -33 -42 -51 -27 -17 15 -25 61 -14 82 12 23 54 25 45 3z m337 -202 c25
-29 26 -77 1 -87 -23 -9 -59 13 -45 27 16 16 13 27 -6 27 -10 0 -24 4 -32 9
-12 8 -12 12 -2 25 18 21 64 20 84 -1z m-189 -49 c23 -9 20 -34 -3 -34 -11 0
-23 -5 -27 -11 -5 -9 1 -10 20 -5 30 7 33 0 9 -26 -20 -23 -59 -23 -71 -1 -16
28 7 63 55 82 1 1 8 -2 17 -5z m-29 -258 c48 -20 47 -46 -2 -46 -25 0 -33 -3
-24 -9 22 -14 -3 -21 -30 -8 -33 17 -37 54 -7 66 13 6 24 10 26 10 1 1 18 -6
37 -13z m166 -49 c20 -15 39 -51 39 -72 0 -8 -11 -20 -25 -27 -19 -9 -29 -8
-50 6 -33 22 -32 36 3 36 l27 1 -27 20 c-38 28 -35 40 12 48 3 0 12 -5 21 -12z"/>
<path d="M1066 1444 c16 -24 62 -54 84 -54 15 0 12 36 -5 50 -18 15 -20 -1 -3
-18 6 -6 9 -14 7 -17 -3 -3 -24 11 -46 30 -49 42 -60 44 -37 9z"/>
<path d="M745 2060 l30 -20 -27 0 c-32 0 -37 -16 -8 -24 11 -3 29 -9 40 -12
16 -4 20 -1 20 20 0 28 -33 56 -65 56 -17 0 -15 -3 10 -20z"/>
<path d="M2100 1775 c0 -23 29 -75 41 -75 18 0 21 28 4 59 -16 32 -45 42 -45
16z"/>
</g>
</svg>
