<?xml version="1.0" standalone="no"?>
<!DOCTYPE svg PUBLIC "-//W3C//DTD SVG 20010904//EN"
 "http://www.w3.org/TR/2001/REC-SVG-20010904/DTD/svg10.dtd">
<svg version="1.0" xmlns="http://www.w3.org/2000/svg"
 width="546.000000pt" height="195.000000pt" viewBox="0 0 546.000000 195.000000"
 preserveAspectRatio="xMidYMid meet">

<g transform="translate(0.000000,195.000000) scale(0.100000,-0.100000)"
fill="#000000" stroke="none">
<path d="M2737 1819 c-56 -13 -112 -44 -150 -84 l-34 -35 -39 39 c-76 75 -189
80 -269 10 -66 -58 -82 -163 -40 -254 42 -90 183 -195 285 -213 38 -7 45 -11
42 -28 -1 -12 4 -27 13 -34 13 -11 18 -10 28 4 12 16 14 16 40 -4 15 -12 27
-28 27 -36 0 -13 13 -19 34 -15 5 1 6 -5 2 -14 -3 -9 -6 -29 -6 -45 0 -23 -3
-27 -20 -23 -26 7 -50 -13 -50 -42 0 -39 11 -55 37 -55 18 0 28 8 36 29 l11
29 28 -60 c15 -33 28 -62 28 -64 0 -2 -10 -4 -23 -4 -29 0 -47 -18 -47 -47 0
-40 44 -49 83 -15 16 14 17 11 17 -44 0 -70 -12 -97 -29 -66 -14 27 -45 36
-71 22 -31 -17 -22 -52 18 -72 l34 -16 -40 -27 c-35 -23 -62 -55 -46 -55 3 0
27 18 53 40 26 22 51 40 55 40 4 0 20 -9 35 -21 23 -17 32 -19 50 -10 38 21
18 91 -27 91 -14 0 -17 11 -17 75 0 63 2 74 15 69 8 -4 26 -7 40 -8 20 -1 26
4 28 27 2 16 -2 35 -9 43 -17 21 -56 17 -73 -8 -19 -26 -16 -28 -55 49 -36 72
-40 94 -13 70 35 -32 82 -15 82 28 0 24 -29 55 -50 55 -9 0 -8 6 5 20 28 31
53 34 73 10 17 -22 18 -22 41 -3 23 19 25 19 60 1 43 -22 81 -23 147 -3 74 22
141 71 182 133 36 54 37 57 37 151 0 87 -3 101 -28 143 -49 85 -122 117 -206
92 -25 -7 -47 -10 -49 -5 -1 4 -16 28 -31 53 -50 78 -142 111 -244 87z m128
-20 c51 -14 110 -73 124 -124 47 -171 -53 -350 -227 -405 -76 -24 -94 -18
-161 55 -58 63 -82 122 -83 198 0 96 42 176 122 232 71 49 150 65 225 44z
m-396 -47 c14 -10 34 -30 45 -45 20 -27 20 -28 2 -78 -35 -96 -21 -196 40
-282 19 -26 34 -50 34 -53 0 -17 -125 7 -182 34 -109 51 -208 176 -208 262 0
77 42 147 105 176 40 19 131 11 164 -14z m701 -94 c132 -67 149 -275 34 -394
-109 -112 -272 -120 -336 -15 -20 31 -20 34 -4 43 45 25 89 76 121 140 31 63
35 79 35 149 0 75 1 78 28 87 43 16 75 14 122 -10z m-551 -377 c20 -13 3 -33
-21 -25 -13 4 -24 0 -33 -13 -14 -17 -14 -17 -15 5 0 14 8 26 23 32 28 11 29
11 46 1z m221 -17 c0 -4 -19 -25 -42 -47 l-42 -41 -8 29 c-4 16 -6 30 -5 31 1
1 18 9 37 17 38 17 60 21 60 11z m-171 -13 c11 -7 9 -11 -8 -21 -13 -6 -30 -9
-38 -5 -14 5 -14 7 3 20 22 17 25 17 43 6z m56 -27 c17 -17 16 -35 -1 -41 -6
-2 -15 7 -21 19 l-10 23 -12 -23 c-13 -25 -31 -29 -31 -8 0 14 36 46 52 46 3
0 14 -7 23 -16z m140 -4 c17 -19 17 -22 3 -36 -18 -18 -40 -11 -32 10 3 7 -3
16 -13 20 -15 6 -15 8 -3 16 21 13 25 13 45 -10z m-150 -86 c-18 -28 -20 -43
-3 -26 7 7 24 12 39 12 34 0 49 -34 26 -57 -12 -13 -18 -13 -38 -2 l-24 14 30
4 c28 5 28 5 -10 10 -32 5 -41 11 -43 29 -5 34 5 53 23 46 14 -6 14 -9 0 -30z
m-76 -86 c-11 -21 -11 -22 5 -8 16 13 18 12 14 -10 -4 -34 -36 -38 -44 -6 -7
29 1 46 22 46 12 0 13 -4 3 -22z m209 -110 c14 -14 16 -44 3 -52 -5 -4 -16 -3
-25 0 -13 5 -14 9 -5 20 9 11 7 14 -10 14 -21 0 -27 10 -14 23 10 11 38 8 51
-5z m-105 -40 c7 -20 -12 -48 -33 -48 -25 0 -33 15 -20 40 12 22 46 27 53 8z
m-15 -150 c20 -20 14 -29 -15 -22 -22 4 -25 3 -13 -5 13 -9 11 -11 -6 -11 -22
0 -39 24 -28 41 8 13 48 11 62 -3z m102 -39 c7 -11 9 -27 6 -35 -7 -18 -40
-18 -56 1 -10 13 -9 15 11 15 l24 1 -23 12 c-24 14 -20 27 9 27 10 0 23 -9 29
-21z"/>
<path d="M2580 1384 c17 -28 50 -48 61 -37 6 6 0 17 -13 29 l-23 19 19 -22
c27 -32 8 -29 -27 5 -22 20 -26 22 -17 6z"/>
<path d="M2395 1744 c22 -11 24 -14 8 -10 -13 2 -26 0 -29 -5 -3 -5 1 -9 10
-9 8 0 21 -3 29 -6 10 -4 15 0 13 11 -3 19 -24 35 -46 34 -8 0 -1 -7 15 -15z"/>
<path d="M3206 1582 c-8 -13 10 -52 24 -52 14 0 12 23 -3 45 -10 12 -16 14
-21 7z"/>
<path d="M2715 880 c-3 -6 1 -7 9 -4 18 7 21 14 7 14 -6 0 -13 -4 -16 -10z"/>
<path d="M333 280 c-92 -56 -78 -183 25 -227 69 -29 158 26 169 104 10 74 -51
143 -127 143 -19 0 -49 -9 -67 -20z m97 -30 c5 0 18 -10 30 -22 46 -49 8 -138
-60 -138 -62 0 -104 83 -66 132 15 21 56 38 74 32 8 -2 18 -4 22 -4z"/>
<path d="M843 280 c-88 -53 -81 -175 12 -220 37 -18 50 -20 81 -11 60 17 74
36 74 103 l0 58 -55 0 c-48 0 -55 -2 -55 -20 0 -16 7 -20 35 -20 32 0 35 -2
35 -30 0 -50 -65 -68 -112 -30 -77 60 -4 173 87 136 24 -10 36 -11 44 -3 17
17 13 25 -19 42 -40 21 -89 19 -127 -5z"/>
<path d="M2494 281 c-44 -27 -64 -59 -64 -104 0 -57 25 -96 76 -118 56 -25
110 -13 148 32 26 31 31 50 27 104 -7 84 -111 132 -187 86z m124 -58 c63 -69
-29 -171 -106 -117 -32 22 -43 57 -31 94 21 60 92 72 137 23z"/>
<path d="M4799 277 c-87 -58 -78 -172 18 -218 35 -17 48 -18 80 -10 66 18 110
84 97 145 -20 93 -119 135 -195 83z m129 -54 c63 -69 -29 -171 -106 -117 -32
22 -43 57 -31 94 21 60 92 72 137 23z"/>
<path d="M5103 292 c-33 -10 -63 -39 -63 -61 0 -33 37 -68 85 -80 39 -10 46
-15 43 -34 -4 -28 -38 -34 -80 -13 -28 14 -34 15 -46 2 -13 -13 -11 -17 19
-35 47 -29 103 -28 134 4 46 45 23 96 -53 118 -28 9 -48 21 -50 31 -5 23 25
31 61 18 22 -8 34 -9 44 -1 20 17 16 24 -22 42 -38 18 -39 18 -72 9z"/>
<path d="M570 170 l0 -120 25 0 c24 0 25 3 25 60 0 33 4 60 8 60 5 0 28 -27
52 -60 32 -44 50 -60 67 -60 13 0 23 2 23 5 0 3 -18 31 -41 61 -38 51 -40 57
-25 73 9 10 16 29 16 43 0 40 -29 58 -93 58 l-57 0 0 -120z m105 60 c0 -9 -11
-16 -27 -18 -23 -3 -28 1 -28 18 0 17 5 21 28 18 16 -2 27 -9 27 -18z"/>
<path d="M1088 170 l-46 -120 25 0 c18 0 28 8 36 30 10 27 16 30 55 30 39 0
44 -3 53 -30 8 -22 17 -30 36 -30 28 0 30 -8 -26 135 -33 85 -42 100 -63 103
-22 3 -28 -6 -70 -118z m92 -2 c0 -4 -9 -8 -20 -8 -21 0 -24 8 -13 36 6 16 7
16 20 -2 7 -10 13 -21 13 -26z"/>
<path d="M1320 170 l0 -120 25 0 c25 0 25 2 25 77 l0 77 53 -77 c38 -57 58
-77 75 -77 22 0 22 2 22 120 0 112 -1 120 -20 120 -17 0 -19 -8 -22 -77 l-3
-78 -53 78 c-42 61 -58 77 -77 77 l-25 0 0 -120z"/>
<path d="M1600 170 c0 -113 1 -120 20 -120 19 0 20 7 20 120 0 113 -1 120 -20
120 -19 0 -20 -7 -20 -120z"/>
<path d="M1720 270 c0 -17 7 -20 50 -20 28 0 50 -2 50 -5 0 -3 -22 -39 -50
-80 -27 -41 -50 -83 -50 -95 0 -18 6 -20 80 -20 73 0 80 2 80 20 0 17 -7 20
-50 20 -27 0 -50 2 -50 5 0 3 23 39 50 80 28 41 50 83 50 95 0 18 -6 20 -80
20 -73 0 -80 -2 -80 -20z"/>
<path d="M1959 170 l-47 -120 25 0 c18 0 28 8 36 30 10 27 16 30 55 30 39 0
44 -3 53 -30 8 -22 17 -30 36 -30 28 0 30 -7 -26 136 -32 84 -42 99 -62 102
-22 3 -28 -7 -70 -118z m91 -2 c0 -4 -9 -8 -20 -8 -21 0 -24 8 -13 36 6 16 7
16 20 -2 7 -10 13 -21 13 -26z"/>
<path d="M2180 170 l0 -120 56 0 c96 0 154 46 154 122 -1 76 -54 118 -147 118
l-63 0 0 -120z m136 57 c55 -48 18 -137 -57 -137 l-29 0 0 80 0 80 29 0 c17 0
42 -10 57 -23z"/>
<path d="M2730 170 c0 -113 1 -120 20 -120 18 0 20 7 20 60 0 41 4 60 13 60 6
0 32 -27 55 -60 33 -45 50 -60 68 -60 28 0 28 0 -23 71 -33 47 -33 47 -16 78
16 28 17 33 3 58 -14 25 -22 28 -78 31 l-62 3 0 -121z m100 59 c0 -16 -5 -20
-27 -17 -17 2 -29 10 -31 21 -3 13 3 17 27 17 25 0 31 -4 31 -21z"/>
<path d="M3060 170 l0 -120 58 0 c69 0 115 25 139 75 21 45 6 102 -38 139 -26
22 -40 26 -95 26 l-64 0 0 -120z m142 50 c18 -23 23 -56 12 -85 -8 -20 -56
-45 -89 -45 -25 0 -25 1 -25 81 l0 82 42 -6 c27 -4 49 -14 60 -27z"/>
<path d="M3310 170 l0 -120 80 0 c73 0 80 2 80 20 0 18 -7 20 -55 20 l-55 0 0
40 0 40 50 0 c43 0 50 3 50 20 0 17 -7 20 -50 20 -43 0 -50 3 -50 20 0 18 7
20 60 20 53 0 60 2 60 20 0 18 -7 20 -85 20 l-85 0 0 -120z"/>
<path d="M3610 170 l0 -120 80 0 c73 0 80 2 80 20 0 18 -7 20 -55 20 l-55 0 0
40 0 40 50 0 c43 0 50 3 50 20 0 17 -7 20 -50 20 -43 0 -50 3 -50 20 0 18 7
20 60 20 53 0 60 2 60 20 0 18 -7 20 -85 20 l-85 0 0 -120z"/>
<path d="M3858 171 c39 -104 49 -121 68 -121 19 0 28 16 64 107 23 60 44 114
47 121 3 8 -4 12 -20 12 -22 0 -29 -9 -53 -72 -15 -40 -31 -77 -34 -81 -4 -4
-20 27 -37 70 -26 66 -34 78 -56 81 l-25 3 46 -120z"/>
<path d="M4080 170 l0 -120 80 0 c73 0 80 2 80 20 0 16 -8 19 -57 22 l-58 3 0
35 0 35 53 3 c43 3 52 6 52 22 0 16 -9 19 -52 22 -41 2 -54 7 -56 21 -3 15 5
17 57 17 54 0 61 2 61 20 0 18 -7 20 -80 20 l-80 0 0 -120z"/>
<path d="M4290 170 l0 -120 25 0 c23 0 24 3 27 78 l3 77 53 -77 c42 -62 58
-78 77 -78 l25 0 0 120 0 120 -25 0 c-23 0 -24 -3 -27 -77 l-3 -77 -50 77
c-42 65 -54 77 -77 77 l-28 0 0 -120z"/>
<path d="M4550 270 c0 -16 7 -20 30 -20 l30 0 0 -100 c0 -93 1 -100 20 -100
18 0 20 8 22 97 l3 98 33 3 c24 2 32 8 32 23 0 17 -8 19 -85 19 -78 0 -85 -2
-85 -20z"/>
</g>
</svg>
