<?xml version="1.0" standalone="no"?>
<!DOCTYPE svg PUBLIC "-//W3C//DTD SVG 20010904//EN"
 "http://www.w3.org/TR/2001/REC-SVG-20010904/DTD/svg10.dtd">
<svg version="1.0" xmlns="http://www.w3.org/2000/svg"
 width="837.000000pt" height="69.000000pt" viewBox="0 0 837.000000 69.000000"
 preserveAspectRatio="xMidYMid meet">

<g transform="translate(0.000000,69.000000) scale(0.100000,-0.100000)"
fill="#000000" stroke="none">
<path d="M212 552 c-91 -36 -151 -129 -138 -214 16 -103 96 -179 196 -186 234
-17 318 295 106 394 -60 28 -105 29 -164 6z m164 -97 c39 -42 51 -89 34 -139
-12 -37 -55 -80 -91 -91 -81 -26 -183 78 -162 164 16 67 62 100 137 101 43 0
52 -4 82 -35z"/>
<path d="M1076 560 c-106 -34 -174 -147 -147 -247 36 -133 183 -204 298 -145
59 31 73 63 73 167 l0 86 -87 -3 c-78 -3 -88 -5 -91 -22 -6 -27 24 -46 70 -46
40 0 44 -6 39 -60 -3 -33 -26 -57 -62 -65 -46 -10 -87 4 -130 44 -34 33 -39
44 -39 82 0 89 70 148 159 134 25 -4 62 -8 81 -8 31 -2 35 1 35 23 0 46 -124
84 -199 60z"/>
<path d="M3817 556 c-57 -21 -103 -61 -126 -109 -68 -139 39 -297 201 -297 46
0 64 5 104 32 70 48 97 104 91 190 -3 52 -11 78 -31 108 -46 70 -158 106 -239
76z m141 -95 c96 -70 67 -207 -50 -236 -69 -17 -158 53 -158 126 0 116 115
177 208 110z"/>
<path d="M7666 555 c-45 -16 -109 -75 -131 -121 -31 -66 -9 -170 46 -221 42
-38 112 -68 155 -67 90 2 180 75 205 167 23 87 -35 197 -126 238 -47 22 -96
23 -149 4z m142 -93 c40 -29 65 -84 57 -125 -10 -47 -50 -94 -91 -107 -80 -27
-174 41 -174 126 0 47 31 101 70 122 34 17 102 9 138 -16z"/>
<path d="M8101 544 c-126 -63 -96 -171 64 -224 53 -18 65 -25 65 -43 -1 -53
-47 -68 -115 -38 -56 25 -78 26 -95 6 -10 -12 -10 -18 1 -31 44 -53 178 -77
233 -41 41 27 68 76 61 112 -7 38 -49 82 -94 96 -76 25 -112 49 -109 72 4 27
42 33 105 18 50 -13 86 -1 81 27 -3 18 -100 72 -128 72 -9 0 -40 -12 -69 -26z"/>
<path d="M4170 372 c0 -183 6 -222 36 -222 22 0 34 43 34 120 0 107 14 105
113 -20 59 -76 87 -99 120 -100 28 0 20 28 -26 94 -72 100 -72 99 -46 162 23
54 23 55 5 89 -23 43 -31 46 -143 54 l-93 6 0 -183z m155 102 c18 -18 16 -33
-6 -47 -20 -12 -72 12 -77 35 -5 28 58 37 83 12z"/>
<path d="M570 350 l0 -201 38 3 c35 3 37 5 39 38 8 105 15 160 23 160 4 0 35
-35 68 -77 33 -43 68 -86 79 -95 25 -23 83 -35 83 -18 0 6 -28 52 -62 101
l-61 89 21 44 c28 56 28 88 -2 123 -23 27 -29 28 -125 31 l-101 4 0 -202z
m165 106 c0 -29 -54 -45 -71 -21 -21 28 -6 46 35 43 28 -2 36 -7 36 -22z"/>
<path d="M1512 538 c-15 -19 -152 -363 -152 -382 0 -4 14 -6 32 -4 24 2 39 13
63 48 l32 45 64 0 64 0 23 -42 c25 -45 64 -65 85 -44 12 12 3 43 -74 235 -26
65 -56 127 -65 137 -20 22 -57 25 -72 7z m54 -145 c22 -30 17 -53 -11 -53 -30
0 -41 20 -25 49 13 26 19 26 36 4z"/>
<path d="M1820 349 l0 -200 38 3 37 3 5 125 5 125 85 -120 c61 -85 93 -121
114 -128 21 -7 31 -6 37 4 5 8 8 97 6 199 l-2 185 -25 0 c-22 0 -26 -5 -32
-45 -3 -25 -7 -81 -7 -124 l-1 -80 -69 100 c-95 137 -112 154 -156 154 l-35 0
0 -201z"/>
<path d="M2297 544 c-4 -4 -7 -89 -7 -189 0 -150 3 -185 15 -195 12 -10 18
-10 30 0 13 11 15 42 13 199 -3 179 -4 186 -23 189 -12 2 -24 0 -28 -4z"/>
<path d="M2494 535 c-13 -32 3 -42 76 -47 39 -3 73 -8 76 -11 3 -3 -25 -54
-64 -114 -86 -134 -92 -146 -92 -176 0 -19 6 -26 31 -31 41 -8 158 -8 198 0
27 6 32 11 29 33 -3 25 -6 26 -78 31 -59 4 -74 8 -72 19 2 8 28 52 58 98 71
110 96 160 92 186 -3 21 -8 22 -126 25 -102 2 -123 0 -128 -13z"/>
<path d="M2950 510 c-20 -39 -140 -344 -140 -355 0 -4 14 -5 32 -3 24 2 39 13
63 48 31 44 33 45 93 48 61 3 63 2 80 -29 9 -18 25 -41 35 -51 21 -22 60 -20
65 3 4 22 -114 321 -139 353 -31 40 -64 34 -89 -14z m66 -117 c22 -30 17 -53
-11 -53 -30 0 -41 20 -25 49 13 26 19 26 36 4z"/>
<path d="M3252 354 l3 -199 85 1 c101 1 149 15 197 57 45 40 63 82 63 149 0
71 -32 125 -90 158 -38 21 -61 25 -153 28 l-107 4 2 -198z m184 117 c78 -36
106 -110 68 -182 -18 -35 -82 -68 -131 -69 l-33 0 0 135 0 135 28 0 c15 0 45
-9 68 -19z"/>
<path d="M4720 349 l0 -202 94 6 c102 6 151 24 198 74 69 73 65 185 -11 266
-44 49 -71 57 -181 57 l-100 0 0 -201z m201 110 c43 -21 59 -54 59 -119 0 -40
-4 -52 -26 -69 -35 -27 -106 -53 -135 -49 -24 3 -24 4 -27 136 l-3 133 48 -7
c26 -3 64 -15 84 -25z"/>
<path d="M5140 350 l0 -200 99 0 c54 0 113 3 130 6 27 6 32 11 29 33 -3 26 -4
26 -90 29 l-88 3 0 63 0 64 75 4 c81 4 107 17 89 46 -8 12 -29 18 -79 22 -50
4 -71 10 -79 22 -18 30 8 42 102 48 85 5 87 6 87 30 l0 25 -137 3 -138 3 0
-201z"/>
<path d="M5640 350 l0 -200 99 0 c54 0 113 3 130 6 27 6 32 11 29 33 -3 26 -4
26 -90 29 l-88 3 0 63 0 64 75 4 c81 4 107 17 89 46 -8 12 -29 18 -79 22 -50
4 -71 10 -79 22 -18 30 8 42 102 48 85 5 87 6 87 30 l0 25 -137 3 -138 3 0
-201z"/>
<path d="M5980 543 c0 -15 119 -315 137 -345 28 -48 49 -57 74 -32 17 18 159
352 159 376 0 5 -17 8 -37 6 -41 -3 -35 7 -121 -198 -21 -51 -23 -53 -36 -35
-7 11 -30 58 -50 104 -50 116 -61 131 -96 131 -17 0 -30 -3 -30 -7z"/>
<path d="M6420 350 l0 -200 108 1 c126 1 157 8 157 33 0 27 -20 34 -107 41
l-78 7 0 59 0 59 59 0 c75 0 111 13 111 40 0 11 -1 20 -2 21 -2 0 -39 6 -82
12 -54 8 -82 17 -90 29 -5 9 -7 20 -3 24 4 5 48 10 98 12 94 5 115 16 89 47
-10 12 -39 15 -136 15 l-124 0 0 -200z"/>
<path d="M6770 350 l0 -200 29 0 c16 0 34 6 40 14 7 8 15 65 19 127 l7 113 83
-117 c80 -114 106 -137 153 -137 18 0 19 9 19 201 l0 200 -37 -3 c-37 -3 -38
-5 -45 -48 -3 -25 -7 -81 -7 -125 l-1 -80 -69 106 c-88 137 -101 149 -151 149
l-40 0 0 -200z"/>
<path d="M7211 541 c-8 -5 -11 -16 -6 -30 5 -17 14 -21 50 -21 l43 0 4 -160
c3 -168 11 -196 46 -174 17 11 27 99 31 272 l1 52 34 0 c19 0 44 8 57 19 20
16 21 21 10 35 -11 13 -35 16 -135 16 -66 0 -127 -4 -135 -9z"/>
</g>
</svg>
