<svg xmlns="http://www.w3.org/2000/svg" xmlns:xlink="http://www.w3.org/1999/xlink" width="500" zoomAndPan="magnify" viewBox="0 0 375 374.999991" height="500" preserveAspectRatio="xMidYMid meet" version="1.0"><defs><g/><clipPath id="a4e5534657"><path d="M 56.488281 151.464844 L 318.167969 151.464844 L 318.167969 223.464844 L 56.488281 223.464844 Z M 56.488281 151.464844 " clip-rule="nonzero"/></clipPath><clipPath id="86900a5463"><path d="M 63.558594 158.238281 L 187.332031 158.238281 L 187.332031 216.761719 L 63.558594 216.761719 Z M 63.558594 158.238281 " clip-rule="nonzero"/></clipPath></defs><g clip-path="url(#a4e5534657)"><path stroke-linecap="butt" transform="matrix(0.75, 0, 0, 0.75, 56.489269, 151.465449)" fill="none" stroke-linejoin="miter" d="M -0.00131672 -0.000807338 L 348.904956 -0.000807338 L 348.904956 96.092949 L -0.00131672 96.092949 Z M -0.00131672 -0.000807338 " stroke="#000000" stroke-width="6" stroke-opacity="1" stroke-miterlimit="4"/></g><g clip-path="url(#86900a5463)"><path fill="#000000" d="M 63.558594 158.238281 L 187.332031 158.238281 L 187.332031 216.761719 L 63.558594 216.761719 Z M 63.558594 158.238281 " fill-opacity="1" fill-rule="nonzero"/></g><g fill="#ffffff" fill-opacity="1"><g transform="translate(72.422446, 193.918245)"><g><path d="M 8.40625 0.324219 C 12.242188 0.324219 14.726562 -1.554688 14.726562 -4.617188 C 14.726562 -7.199219 12.996094 -8.753906 8.503906 -9.859375 C 5.09375 -10.6875 3.964844 -11.589844 3.964844 -13.046875 C 3.964844 -14.726562 5.46875 -15.78125 7.976562 -15.78125 C 10.5625 -15.78125 12.167969 -14.476562 12.21875 -12.367188 L 14.398438 -12.367188 C 14.375 -15.78125 11.917969 -17.886719 7.976562 -17.886719 C 4.140625 -17.886719 1.707031 -16.003906 1.707031 -13.046875 C 1.707031 -10.335938 3.636719 -8.832031 7.953125 -7.800781 C 11.113281 -7.050781 12.445312 -6.171875 12.445312 -4.539062 C 12.445312 -2.808594 10.886719 -1.78125 8.40625 -1.78125 C 5.667969 -1.78125 3.761719 -3.136719 3.714844 -5.394531 L 1.503906 -5.394531 C 1.53125 -1.957031 4.214844 0.324219 8.40625 0.324219 Z M 8.40625 0.324219 "/></g></g></g><g fill="#ffffff" fill-opacity="1"><g transform="translate(90.554798, 193.918245)"><g><path d="M 10.535156 0.324219 C 15.878906 0.324219 19.644531 -3.4375 19.644531 -8.78125 C 19.644531 -14.125 15.878906 -17.886719 10.535156 -17.886719 C 5.191406 -17.886719 1.453125 -14.125 1.453125 -8.78125 C 1.453125 -3.4375 5.191406 0.324219 10.535156 0.324219 Z M 3.714844 -8.78125 C 3.714844 -12.871094 6.496094 -15.679688 10.535156 -15.679688 C 14.574219 -15.679688 17.359375 -12.871094 17.359375 -8.78125 C 17.359375 -4.691406 14.574219 -1.882812 10.535156 -1.882812 C 6.496094 -1.882812 3.714844 -4.691406 3.714844 -8.78125 Z M 3.714844 -8.78125 "/></g></g></g><g fill="#ffffff" fill-opacity="1"><g transform="translate(113.527221, 193.918245)"><g><path d="M 10.335938 0.324219 C 14.601562 0.324219 18.0625 -2.257812 19.117188 -6.171875 L 16.785156 -6.171875 C 15.878906 -3.539062 13.398438 -1.882812 10.410156 -1.882812 C 6.496094 -1.882812 3.714844 -4.714844 3.714844 -8.78125 C 3.714844 -12.84375 6.496094 -15.679688 10.410156 -15.679688 C 13.320312 -15.679688 15.703125 -14.125 16.609375 -11.589844 L 18.964844 -11.589844 C 17.8125 -15.453125 14.476562 -17.886719 10.335938 -17.886719 C 5.167969 -17.886719 1.453125 -14.074219 1.453125 -8.78125 C 1.453125 -3.488281 5.167969 0.324219 10.335938 0.324219 Z M 10.335938 0.324219 "/></g></g></g><g fill="#ffffff" fill-opacity="1"><g transform="translate(135.897767, 193.918245)"><g><path d="M 2.558594 0 L 4.765625 0 L 4.765625 -17.5625 L 2.558594 -17.5625 Z M 2.558594 0 "/></g></g></g><g fill="#ffffff" fill-opacity="1"><g transform="translate(145.12738, 193.918245)"><g><path d="M 0.425781 0 L 2.785156 0 L 4.390625 -3.988281 L 12.945312 -3.988281 L 14.601562 0 L 16.933594 0 L 9.707031 -17.5625 L 7.652344 -17.5625 Z M 5.242188 -6.046875 L 8.679688 -14.476562 L 12.117188 -6.046875 Z M 5.242188 -6.046875 "/></g></g></g><g fill="#ffffff" fill-opacity="1"><g transform="translate(164.388243, 193.918245)"><g><path d="M 2.558594 0 L 13.296875 0 L 13.296875 -2.105469 L 4.765625 -2.105469 L 4.765625 -17.5625 L 2.558594 -17.5625 Z M 2.558594 0 "/></g></g></g><g fill="#000000" fill-opacity="1"><g transform="translate(208.344643, 194.568254)"><g><path d="M 1.929688 0 L 14.738281 0 L 14.738281 -4.304688 L 7.148438 -4.304688 L 7.148438 -7.121094 L 13.746094 -7.121094 L 13.746094 -11.347656 L 7.148438 -11.347656 L 7.148438 -14.007812 L 14.449219 -14.007812 L 14.449219 -18.257812 L 1.929688 -18.257812 Z M 1.929688 0 "/></g></g></g><g fill="#000000" fill-opacity="1"><g transform="translate(224.249961, 194.568254)"><g><path d="M 6.992188 0 L 12.207031 0 L 19.066406 -18.257812 L 13.460938 -18.257812 L 11.320312 -12.234375 L 9.625 -7.488281 L 7.929688 -12.234375 L 5.789062 -18.257812 L 0.128906 -18.257812 Z M 6.992188 0 "/></g></g></g><g fill="#000000" fill-opacity="1"><g transform="translate(243.440637, 194.568254)"><g><path d="M 1.929688 0 L 14.738281 0 L 14.738281 -4.304688 L 7.148438 -4.304688 L 7.148438 -7.121094 L 13.746094 -7.121094 L 13.746094 -11.347656 L 7.148438 -11.347656 L 7.148438 -14.007812 L 14.449219 -14.007812 L 14.449219 -18.257812 L 1.929688 -18.257812 Z M 1.929688 0 "/></g></g></g><g fill="#000000" fill-opacity="1"><g transform="translate(259.345955, 194.568254)"><g><path d="M 1.929688 0 L 7.148438 0 L 7.148438 -9.3125 L 14.085938 0 L 18.363281 0 L 18.363281 -18.257812 L 13.171875 -18.257812 L 13.171875 -9 L 6.234375 -18.257812 L 1.929688 -18.257812 Z M 1.929688 0 "/></g></g></g><g fill="#000000" fill-opacity="1"><g transform="translate(279.657821, 194.568254)"><g><path d="M 6.285156 0 L 11.53125 0 L 11.53125 -13.382812 L 17.085938 -13.382812 L 17.085938 -18.257812 L 0.730469 -18.257812 L 0.730469 -13.382812 L 6.285156 -13.382812 Z M 6.285156 0 "/></g></g></g></svg>